<mxfile host="app.diagrams.net" agent="Mozilla/5.0 (Windows NT 10.0; Win64; x64) AppleWebKit/537.36 (KHTML, like Gecko) Chrome/132.0.0.0 Safari/537.36" version="26.0.9">
  <diagram name="Page-1" id="xaZs_xsT0-PYlA_mKxgr">
    <mxGraphModel dx="1221" dy="725" grid="1" gridSize="10" guides="1" tooltips="1" connect="1" arrows="1" fold="1" page="1" pageScale="1" pageWidth="827" pageHeight="1169" math="0" shadow="0">
      <root>
        <mxCell id="0" />
        <mxCell id="1" parent="0" />
        <mxCell id="ALeJoM406aDrwySH7fn3-1" value="Input" style="whiteSpace=wrap;strokeWidth=2;" vertex="1" parent="1">
          <mxGeometry x="101" y="20" width="97" height="54" as="geometry" />
        </mxCell>
        <mxCell id="ALeJoM406aDrwySH7fn3-2" value="Conv1: 32 filters, 3x3 kernel, stride 2" style="whiteSpace=wrap;strokeWidth=2;" vertex="1" parent="1">
          <mxGeometry x="20" y="124" width="260" height="78" as="geometry" />
        </mxCell>
        <mxCell id="ALeJoM406aDrwySH7fn3-3" value="ReLU1" style="whiteSpace=wrap;strokeWidth=2;" vertex="1" parent="1">
          <mxGeometry x="98" y="252" width="104" height="54" as="geometry" />
        </mxCell>
        <mxCell id="ALeJoM406aDrwySH7fn3-4" value="Inverted Residual Block: t=1, c=16, n=1, s=1" style="whiteSpace=wrap;strokeWidth=2;" vertex="1" parent="1">
          <mxGeometry x="20" y="356" width="260" height="78" as="geometry" />
        </mxCell>
        <mxCell id="ALeJoM406aDrwySH7fn3-5" value="Inverted Residual Block: t=6, c=24, n=2, s=2" style="whiteSpace=wrap;strokeWidth=2;" vertex="1" parent="1">
          <mxGeometry x="20" y="484" width="260" height="78" as="geometry" />
        </mxCell>
        <mxCell id="ALeJoM406aDrwySH7fn3-6" value="Inverted Residual Block: t=6, c=32, n=3, s=2" style="whiteSpace=wrap;strokeWidth=2;" vertex="1" parent="1">
          <mxGeometry x="20" y="612" width="260" height="78" as="geometry" />
        </mxCell>
        <mxCell id="ALeJoM406aDrwySH7fn3-31" style="edgeStyle=orthogonalEdgeStyle;rounded=0;orthogonalLoop=1;jettySize=auto;html=1;entryX=0.473;entryY=-0.013;entryDx=0;entryDy=0;entryPerimeter=0;" edge="1" parent="1" source="ALeJoM406aDrwySH7fn3-7" target="ALeJoM406aDrwySH7fn3-8">
          <mxGeometry relative="1" as="geometry">
            <mxPoint x="340" y="8" as="targetPoint" />
            <Array as="points">
              <mxPoint x="360" y="779" />
              <mxPoint x="360" y="10" />
              <mxPoint x="563" y="10" />
            </Array>
          </mxGeometry>
        </mxCell>
        <mxCell id="ALeJoM406aDrwySH7fn3-7" value="Inverted Residual Block: t=6, c=64, n=4, s=2" style="whiteSpace=wrap;strokeWidth=2;" vertex="1" parent="1">
          <mxGeometry x="20" y="740" width="260" height="78" as="geometry" />
        </mxCell>
        <mxCell id="ALeJoM406aDrwySH7fn3-8" value="Inverted Residual Block: t=6, c=96, n=3, s=1" style="whiteSpace=wrap;strokeWidth=2;" vertex="1" parent="1">
          <mxGeometry x="440" y="40" width="260" height="78" as="geometry" />
        </mxCell>
        <mxCell id="ALeJoM406aDrwySH7fn3-9" value="Inverted Residual Block: t=6, c=160, n=3, s=2" style="whiteSpace=wrap;strokeWidth=2;" vertex="1" parent="1">
          <mxGeometry x="440" y="168" width="260" height="78" as="geometry" />
        </mxCell>
        <mxCell id="ALeJoM406aDrwySH7fn3-10" value="Inverted Residual Block: t=6, c=320, n=1, s=1" style="whiteSpace=wrap;strokeWidth=2;" vertex="1" parent="1">
          <mxGeometry x="440" y="296" width="260" height="78" as="geometry" />
        </mxCell>
        <mxCell id="ALeJoM406aDrwySH7fn3-11" value="Conv2: 1280 filters, 1x1 kernel, stride 1" style="whiteSpace=wrap;strokeWidth=2;" vertex="1" parent="1">
          <mxGeometry x="440" y="424" width="260" height="78" as="geometry" />
        </mxCell>
        <mxCell id="ALeJoM406aDrwySH7fn3-12" value="Global Average Pooling: 1x1" style="whiteSpace=wrap;strokeWidth=2;" vertex="1" parent="1">
          <mxGeometry x="441" y="552" width="258" height="54" as="geometry" />
        </mxCell>
        <mxCell id="ALeJoM406aDrwySH7fn3-13" value="Dropout: 0.2" style="whiteSpace=wrap;strokeWidth=2;" vertex="1" parent="1">
          <mxGeometry x="495" y="656" width="151" height="54" as="geometry" />
        </mxCell>
        <mxCell id="ALeJoM406aDrwySH7fn3-30" style="edgeStyle=orthogonalEdgeStyle;rounded=0;orthogonalLoop=1;jettySize=auto;html=1;entryX=1;entryY=0.5;entryDx=0;entryDy=0;" edge="1" parent="1" source="ALeJoM406aDrwySH7fn3-14" target="ALeJoM406aDrwySH7fn3-15">
          <mxGeometry relative="1" as="geometry" />
        </mxCell>
        <mxCell id="ALeJoM406aDrwySH7fn3-14" value="Fully Connected: 5 neurons" style="whiteSpace=wrap;strokeWidth=2;" vertex="1" parent="1">
          <mxGeometry x="442" y="760" width="256" height="54" as="geometry" />
        </mxCell>
        <mxCell id="ALeJoM406aDrwySH7fn3-15" value="Predicted Classes" style="whiteSpace=wrap;strokeWidth=2;" vertex="1" parent="1">
          <mxGeometry x="270" y="890" width="184" height="54" as="geometry" />
        </mxCell>
        <mxCell id="ALeJoM406aDrwySH7fn3-16" value="" style="curved=1;startArrow=none;endArrow=block;exitX=0.51;exitY=1;entryX=0.5;entryY=0;rounded=0;" edge="1" parent="1" source="ALeJoM406aDrwySH7fn3-1" target="ALeJoM406aDrwySH7fn3-2">
          <mxGeometry relative="1" as="geometry">
            <Array as="points" />
          </mxGeometry>
        </mxCell>
        <mxCell id="ALeJoM406aDrwySH7fn3-17" value="" style="curved=1;startArrow=none;endArrow=block;exitX=0.5;exitY=1;entryX=0.5;entryY=0;rounded=0;" edge="1" parent="1" source="ALeJoM406aDrwySH7fn3-2" target="ALeJoM406aDrwySH7fn3-3">
          <mxGeometry relative="1" as="geometry">
            <Array as="points" />
          </mxGeometry>
        </mxCell>
        <mxCell id="ALeJoM406aDrwySH7fn3-18" value="" style="curved=1;startArrow=none;endArrow=block;exitX=0.5;exitY=1;entryX=0.5;entryY=0;rounded=0;" edge="1" parent="1" source="ALeJoM406aDrwySH7fn3-3" target="ALeJoM406aDrwySH7fn3-4">
          <mxGeometry relative="1" as="geometry">
            <Array as="points" />
          </mxGeometry>
        </mxCell>
        <mxCell id="ALeJoM406aDrwySH7fn3-19" value="" style="curved=1;startArrow=none;endArrow=block;exitX=0.5;exitY=1;entryX=0.5;entryY=0;rounded=0;" edge="1" parent="1" source="ALeJoM406aDrwySH7fn3-4" target="ALeJoM406aDrwySH7fn3-5">
          <mxGeometry relative="1" as="geometry">
            <Array as="points" />
          </mxGeometry>
        </mxCell>
        <mxCell id="ALeJoM406aDrwySH7fn3-20" value="" style="curved=1;startArrow=none;endArrow=block;exitX=0.5;exitY=1;entryX=0.5;entryY=0;rounded=0;" edge="1" parent="1" source="ALeJoM406aDrwySH7fn3-5" target="ALeJoM406aDrwySH7fn3-6">
          <mxGeometry relative="1" as="geometry">
            <Array as="points" />
          </mxGeometry>
        </mxCell>
        <mxCell id="ALeJoM406aDrwySH7fn3-21" value="" style="curved=1;startArrow=none;endArrow=block;exitX=0.5;exitY=1;entryX=0.5;entryY=0;rounded=0;" edge="1" parent="1" source="ALeJoM406aDrwySH7fn3-6" target="ALeJoM406aDrwySH7fn3-7">
          <mxGeometry relative="1" as="geometry">
            <Array as="points" />
          </mxGeometry>
        </mxCell>
        <mxCell id="ALeJoM406aDrwySH7fn3-23" value="" style="curved=1;startArrow=none;endArrow=block;exitX=0.5;exitY=1;entryX=0.5;entryY=0;rounded=0;" edge="1" parent="1" source="ALeJoM406aDrwySH7fn3-8" target="ALeJoM406aDrwySH7fn3-9">
          <mxGeometry relative="1" as="geometry">
            <Array as="points" />
          </mxGeometry>
        </mxCell>
        <mxCell id="ALeJoM406aDrwySH7fn3-24" value="" style="curved=1;startArrow=none;endArrow=block;exitX=0.5;exitY=1;entryX=0.5;entryY=0;rounded=0;" edge="1" parent="1" source="ALeJoM406aDrwySH7fn3-9" target="ALeJoM406aDrwySH7fn3-10">
          <mxGeometry relative="1" as="geometry">
            <Array as="points" />
          </mxGeometry>
        </mxCell>
        <mxCell id="ALeJoM406aDrwySH7fn3-25" value="" style="curved=1;startArrow=none;endArrow=block;exitX=0.5;exitY=1;entryX=0.5;entryY=0;rounded=0;" edge="1" parent="1" source="ALeJoM406aDrwySH7fn3-10" target="ALeJoM406aDrwySH7fn3-11">
          <mxGeometry relative="1" as="geometry">
            <Array as="points" />
          </mxGeometry>
        </mxCell>
        <mxCell id="ALeJoM406aDrwySH7fn3-26" value="" style="curved=1;startArrow=none;endArrow=block;exitX=0.5;exitY=1;entryX=0.5;entryY=0;rounded=0;" edge="1" parent="1" source="ALeJoM406aDrwySH7fn3-11" target="ALeJoM406aDrwySH7fn3-12">
          <mxGeometry relative="1" as="geometry">
            <Array as="points" />
          </mxGeometry>
        </mxCell>
        <mxCell id="ALeJoM406aDrwySH7fn3-27" value="" style="curved=1;startArrow=none;endArrow=block;exitX=0.5;exitY=1;entryX=0.5;entryY=0;rounded=0;" edge="1" parent="1" source="ALeJoM406aDrwySH7fn3-12" target="ALeJoM406aDrwySH7fn3-13">
          <mxGeometry relative="1" as="geometry">
            <Array as="points" />
          </mxGeometry>
        </mxCell>
        <mxCell id="ALeJoM406aDrwySH7fn3-28" value="" style="curved=1;startArrow=none;endArrow=block;exitX=0.5;exitY=1;entryX=0.5;entryY=0;rounded=0;" edge="1" parent="1" source="ALeJoM406aDrwySH7fn3-13" target="ALeJoM406aDrwySH7fn3-14">
          <mxGeometry relative="1" as="geometry">
            <Array as="points" />
          </mxGeometry>
        </mxCell>
      </root>
    </mxGraphModel>
  </diagram>
</mxfile>
